<?xml version="1.0" encoding="utf-8"?>
<!-- Generator: Adobe Illustrator 27.3.1, SVG Export Plug-In . SVG Version: 6.00 Build 0)  -->
<svg version="1.1" id="Ebene_1" xmlns="http://www.w3.org/2000/svg" xmlns:xlink="http://www.w3.org/1999/xlink" x="0px" y="0px"
	 viewBox="0 0 300 346.5" style="enable-background:new 0 0 300 346.5;" xml:space="preserve">
<style type="text/css">
	.st0{fill:#61B180;}
	.st1{fill:#E0AD41;}
	.st2{fill:#CA3D5C;}
	.st3{fill:#68C1EB;}
</style>
<g id="Gruppe_9243" transform="translate(-420.221 -16.759)">
	<g id="Gruppe_4844" transform="translate(420.221 16.759)">
		<path id="Pfad_27" class="st0" d="M172,171.1l46.9-48.7c-28.1-25.9-71.9-24.2-97.8,3.8S96.9,198.1,125,224s71.9,24.2,97.8-3.8
			c0,0,0.1-0.1,0.1-0.1L172,171.1z"/>
		<path id="Pfad_28" class="st1" d="M175.7,167.3l43.3-44.9c-28-25.9-71.8-24.2-97.7,3.8c-25.1,27.1-24.4,69.1,1.5,95.5L175.7,167.3
			z"/>
		<path id="Pfad_29" class="st2" d="M123.8,123.7c-27.3,26.6-27.9,70.4-1.3,97.7c0.1,0.1,0.1,0.1,0.2,0.2l49.5-50.7L123.8,123.7z"/>
		<g id="Gruppe_4843">
			<path id="Pfad_26" class="st3" d="M300,294.7c-37.8,37.2-77.7,51.8-126.1,51.8C79,346.5,0,289.4,0,173.2S79,0,173.9,0
				c46.5,0,82.3,13.3,118.1,48.5l-51.1,53.8c-19.3-17.3-43.1-25.9-65.7-25.9c-54.4,0-94.2,39.8-94.2,96.9
				c0,62.4,42.5,95.6,92.9,95.6c25.9,0,51.8-7.3,71.7-27.2L300,294.7z"/>
		</g>
	</g>
</g>
</svg>
